<svg xmlns="http://www.w3.org/2000/svg" xml:space="preserve" fill-rule="evenodd" stroke-linejoin="round" stroke-miterlimit="2" clip-rule="evenodd" viewBox="0 0 32 32">
  <path fill="#111827" fill-rule="nonzero" d="M16 24.0004c.4536 0 .834-.1536 1.1412-.4608.306-.306.4584-.6864.4584-1.14v-4.8h4.8408c.4524 0 .8268-.1536 1.1196-.4608.2928-.306.4404-.6852.4404-1.1388s-.1536-.834-.4608-1.1412c-.306-.306-.6864-.4584-1.14-.4584h-4.8V9.5596c0-.4524-.1524-.8268-.4584-1.1196-.3072-.2928-.6876-.4404-1.1412-.4404s-.8328.1536-1.1388.4596c-.3072.3072-.4608.6876-.4608 1.1412v4.8H9.5596c-.4524 0-.8268.1524-1.1196.4584-.2928.3072-.4404.6876-.4404 1.1412s.1536.8328.4596 1.1388c.3072.3072.6876.4608 1.1412.4608h4.8v4.8408c0 .4524.1536.8268.4608 1.1196.306.2928.6852.4404 1.1388.4404Zm0 7.9992c-2.2128 0-4.2936-.42-6.24-1.26-1.9464-.84-3.6396-1.98-5.0796-3.42s-2.58-3.1332-3.42-5.0796c-.84-1.9464-1.26-4.0272-1.26-6.24 0-2.2128.42-4.2936 1.26-6.24.84-1.9464 1.98-3.6396 3.42-5.0796S7.8136 2.0992 9.76 1.2592C11.7064.4192 13.7872.0004 16 .0004c2.2128 0 4.2936.4188 6.24 1.2588 1.9464.84 3.6396 1.9812 5.0796 3.4212 1.44 1.44 2.58 3.1332 3.42 5.0796.84 1.9464 1.26 4.0272 1.26 6.24 0 2.2128-.42 4.2936-1.26 6.24-.84 1.9464-1.98 3.6396-3.42 5.0796s-3.1332 2.58-5.0796 3.42c-1.9464.84-4.0272 1.26-6.24 1.26Z"/>
</svg>
